<?xml version="1.0" encoding="utf-8"?>
<!-- Generator: Adobe Illustrator 16.0.0, SVG Export Plug-In . SVG Version: 6.00 Build 0)  -->
<!DOCTYPE svg PUBLIC "-//W3C//DTD SVG 1.1//EN" "http://www.w3.org/Graphics/SVG/1.1/DTD/svg11.dtd">
<svg version="1.1" id="Outline" xmlns="http://www.w3.org/2000/svg" xmlns:xlink="http://www.w3.org/1999/xlink" x="0px" y="0px"
	 width="512px" height="512px" viewBox="0 0 512 512" enable-background="new 0 0 512 512" xml:space="preserve">
<path fill="#20572B" d="M21.333,234.667h469.333c11.782,0,21.333,9.551,21.333,21.333l0,0c0,11.782-9.551,21.334-21.333,21.334
	H21.333C9.551,277.334,0,267.782,0,256l0,0C0,244.218,9.551,234.667,21.333,234.667z"/>
<path fill="#20572B" d="M21.333,85.333h469.333c11.782,0,21.333,9.551,21.333,21.333l0,0c0,11.782-9.551,21.333-21.333,21.333
	H21.333C9.551,128,0,118.449,0,106.667l0,0C0,94.885,9.551,85.333,21.333,85.333z"/>
<path fill="#20572B" d="M21.333,384h469.333c11.782,0,21.333,9.551,21.333,21.333l0,0c0,11.782-9.551,21.334-21.333,21.334H21.333
	C9.551,426.667,0,417.115,0,405.333l0,0C0,393.551,9.551,384,21.333,384z"/>
</svg>
