<?xml version="1.0" encoding="utf-8"?>
<!-- Generator: Adobe Illustrator 16.0.0, SVG Export Plug-In . SVG Version: 6.00 Build 0)  -->
<!DOCTYPE svg PUBLIC "-//W3C//DTD SVG 1.1//EN" "http://www.w3.org/Graphics/SVG/1.1/DTD/svg11.dtd">
<svg version="1.1" id="Layer_1" xmlns="http://www.w3.org/2000/svg" xmlns:xlink="http://www.w3.org/1999/xlink" x="0px" y="0px"
	 width="512px" height="512px" viewBox="0 0 512 512" enable-background="new 0 0 512 512" xml:space="preserve">
<path fill="#F8F8C8" d="M352.747,174.336L271.082,256l81.665,81.664l-15.083,15.082L256,271.082l-81.664,81.664l-15.083-15.082
	L240.917,256l-81.664-81.664l15.083-15.083L256,240.917l81.664-81.664L352.747,174.336z M512,256c0,141.163-114.837,256-256,256
	C114.837,512,0,397.163,0,256C0,114.837,114.837,0,256,0C397.163,0,512,114.837,512,256z M490.667,256
	c0-129.387-105.28-234.667-234.667-234.667S21.333,126.613,21.333,256S126.613,490.667,256,490.667S490.667,385.387,490.667,256z"/>
</svg>
